<svg id="nevatrip-logo" xmlns="http://www.w3.org/2000/svg" viewBox="0 0 227.28 48.22">
  <defs>
  <style>
    .cls-1{ fill:#479fcd; }
    .cls-2{ fill:#676768; }
  </style>
</defs>
<g>
  <path class="cls-1" d="M205.31,7.19A90.06,90.06,0,0,1,213,12.25a63,63,0,0,1,10.5,9.07A21.38,21.38,0,0,1,226.2,25c1.9,3.39,1.29,6.49-1.75,8.93a20.86,20.86,0,0,1-6.79,3.46,52.59,52.59,0,0,1-11.41,2.26c-0.78,0-1.55.21-2.33,0.24-0.19,0-.49.14-0.52-0.25a21.65,21.65,0,0,0,7.74-5.85c3.53-4.37,3.92-9.2,2-14.32-1.69-4.63-4.68-8.42-8-12C205,7.3,205,7.18,205.31,7.19Z"/>
  <path class="cls-2" d="M226.2,36.92a13,13,0,0,1-5.9,6.51A23.55,23.55,0,0,1,207,46.77a19.07,19.07,0,0,1-11.24-3.85,18.23,18.23,0,0,1-3.5-3.64c0-.28.1-0.36,0.33-0.16a31,31,0,0,0,15.14,3.3A37.54,37.54,0,0,0,225.54,37c0.17-.1.33-0.24,0.49-0.36S226.35,36.71,226.2,36.92Z"/>
</g>
<g>
  <path class="cls-1" d="M29.43,35.3H20.49L6.06,10.21H5.85q0.43,6.65.43,9.48V35.3H0V2.13H8.87L23.28,27h0.16q-0.34-6.47-.34-9.14V2.13h6.33V35.3Z"/>
  <path class="cls-1" d="M48.71,35.76q-6.13,0-9.57-3.38T35.69,22.8q0-6.37,3.19-9.86t8.81-3.48q5.38,0,8.37,3.06t3,8.46v3.36H42.7A6.66,6.66,0,0,0,44.45,29,6.15,6.15,0,0,0,49,30.61a19,19,0,0,0,4.33-.48,21.63,21.63,0,0,0,4.26-1.52V34a16.25,16.25,0,0,1-3.88,1.35A24.43,24.43,0,0,1,48.71,35.76Zm-1-21.37a4.39,4.39,0,0,0-3.45,1.4,6.46,6.46,0,0,0-1.43,4h9.71a5.77,5.77,0,0,0-1.34-4A4.53,4.53,0,0,0,47.74,14.38Z"/>
  <path class="cls-1" d="M70.72,35.3L61.05,9.94h7.24l4.9,14.45a25.83,25.83,0,0,1,1,5.19h0.14a22.6,22.6,0,0,1,1-5.19L80.25,9.94h7.24L77.82,35.3h-7.1Z"/>
  <path class="cls-1" d="M107.23,35.3l-1.34-3.45h-0.18a10.23,10.23,0,0,1-3.6,3.05,11.62,11.62,0,0,1-4.82.85,7.79,7.79,0,0,1-5.75-2.09,8,8,0,0,1-2.1-5.94,6.69,6.69,0,0,1,2.82-6q2.82-1.92,8.52-2.12l4.4-.14V18.4q0-3.86-3.95-3.86a18,18,0,0,0-7.15,1.84L91.8,11.71a20.62,20.62,0,0,1,9.71-2.29q5.1,0,7.83,2.22t2.72,6.76V35.3h-4.83Zm-2-11.75-2.68.09A8.58,8.58,0,0,0,98,24.73a3.42,3.42,0,0,0-1.47,3q0,2.93,3.36,2.93a5.32,5.32,0,0,0,3.85-1.38,4.86,4.86,0,0,0,1.44-3.68V23.55Z"/>
  <path class="cls-1" d="M132.52,35.3h-7V8h-9V2.13h25V8h-9V35.3Z"/>
  <path class="cls-1" d="M160.25,9.46a11.18,11.18,0,0,1,2.34.2l-0.52,6.49a7.94,7.94,0,0,0-2-.23,7.33,7.33,0,0,0-5.16,1.7A6.15,6.15,0,0,0,153,22.39V35.3h-6.92V9.94h5.24l1,4.27h0.34a9.55,9.55,0,0,1,3.19-3.44A7.86,7.86,0,0,1,160.25,9.46Z"/>
  <path class="cls-1" d="M166.9,3.38Q166.9,0,170.66,0t3.77,3.38a3.29,3.29,0,0,1-.94,2.51,4,4,0,0,1-2.82.9Q166.9,6.78,166.9,3.38Zm7.21,31.92h-6.92V9.94h6.92V35.3Z"/>
  <path class="cls-1" d="M195.3,35.76a8.42,8.42,0,0,1-7-3.24h-0.36q0.36,3.18.36,3.68V46.47h-6.92V9.94H187l1,3.29h0.32a8,8,0,0,1,7.19-3.77,8.23,8.23,0,0,1,7,3.47q2.54,3.47,2.54,9.64a19,19,0,0,1-1.19,7.06,9.91,9.91,0,0,1-3.39,4.56A8.69,8.69,0,0,1,195.3,35.76Zm-2-20.76a4.37,4.37,0,0,0-3.74,1.58q-1.18,1.58-1.23,5.21v0.75q0,4.08,1.21,5.85a4.33,4.33,0,0,0,3.85,1.77q4.65,0,4.65-7.67a10.94,10.94,0,0,0-1.15-5.62A3.91,3.91,0,0,0,193.26,15Z"/>
</g>
<g class="subtitle">
  <path class="cls-2" d="M0.3,46.24V39.49H2.84a1.65,1.65,0,0,1,1.84,1.72,1.55,1.55,0,0,1-1.19,1.55,1.77,1.77,0,0,1-.61,3.48H0.3Zm4-5a1.36,1.36,0,0,0-1.49-1.42H0.63v2.82H2.84A1.35,1.35,0,0,0,4.33,41.21Zm0.13,3.22a1.47,1.47,0,0,0-1.58-1.51H0.63v3H2.88A1.43,1.43,0,0,0,4.46,44.43Z"/>
  <path class="cls-2" d="M6.09,43.79a2.34,2.34,0,0,1,2.28-2.56,2.34,2.34,0,0,1,2.28,2.56,2.35,2.35,0,0,1-2.28,2.57A2.35,2.35,0,0,1,6.09,43.79Zm4.22,0a2.06,2.06,0,0,0-1.94-2.29,2.07,2.07,0,0,0-1.94,2.29,2.07,2.07,0,0,0,1.94,2.3A2.07,2.07,0,0,0,10.31,43.79Z"/>
  <path class="cls-2" d="M11.44,46c0.51-.05.88-0.5,1.11-2.19l0.33-2.46h2.84V46h0.61v1.52H16V46.24H11.74v1.24h-0.3V46Zm1.41-2.15c-0.18,1.3-.42,1.87-0.8,2.11h3.38V41.63H13.16Z"/>
  <path class="cls-2" d="M17.64,46.24V41.35h0.3v2.21h3V41.35h0.3v4.89h-0.3V43.83h-3v2.41h-0.3Z"/>
  <path class="cls-2" d="M23.29,41.35v2.08h2a1.4,1.4,0,1,1,0,2.8H23V41.35h0.3Zm0,2.36V46h2a1.13,1.13,0,0,0,0-2.26h-2Zm4.28,2.53V41.35h0.3v4.89h-0.3Z"/>
  <path class="cls-2" d="M29.36,43.79a2.41,2.41,0,0,1,2.3-2.56,2.31,2.31,0,0,1,2.27,2.56v0.1H29.7a2.09,2.09,0,0,0,2.05,2.2,2.23,2.23,0,0,0,1.7-.74l0.18,0.19a2.44,2.44,0,0,1-1.88.82A2.39,2.39,0,0,1,29.36,43.79Zm2.29-2.29a2.06,2.06,0,0,0-1.94,2.11h3.9A2,2,0,0,0,31.64,41.51Z"/>
  <path class="cls-2" d="M41.33,46.24V41.63h-3v4.61H38V41.35h3.6v4.89h-0.3Z"/>
  <path class="cls-2" d="M43.68,45.4v2.7h-0.3V41.35h0.3v0.82a2.16,2.16,0,0,1,1.76-.94c1.32,0,2.19,1,2.19,2.56s-0.87,2.57-2.19,2.57A2.14,2.14,0,0,1,43.68,45.4Zm3.61-1.61c0-1.28-.66-2.29-1.85-2.29a2.13,2.13,0,0,0-1.76,1V45.1a2.14,2.14,0,0,0,1.76,1C46.63,46.09,47.29,45.08,47.29,43.79Z"/>
  <path class="cls-2" d="M48.8,43.79a2.29,2.29,0,1,1,4.55,0A2.29,2.29,0,1,1,48.8,43.79Zm4.22,0a2,2,0,1,0-3.88,0A2,2,0,1,0,53,43.79Z"/>
  <path class="cls-2" d="M57.83,41.63H55.14v4.61h-0.3V41.35h3v0.27h0Z"/>
  <path class="cls-2" d="M58.71,47.87a1.21,1.21,0,0,0,.43.08,0.81,0.81,0,0,0,.77-0.67l0.44-1-2.09-4.92h0.35l1.92,4.53,1.91-4.53H62.8l-2.59,6a1.18,1.18,0,0,1-1.07.83,1.71,1.71,0,0,1-.49-0.07Z"/>
  <path class="cls-2" d="M63.1,46.09c0.51,0,.88-0.59,1.11-2.28l0.33-2.46h2.84v4.89h-0.3V41.63H64.82L64.5,43.85c-0.26,1.89-.67,2.51-1.41,2.51V46.09h0Z"/>
  <path class="cls-2" d="M72.59,46.24l-2.14-2.46-1,.93v1.53h-0.3V41.35h0.3v3l3.19-3h0.43l-2.38,2.21L73,46.24H72.59Z"/>
  <path class="cls-2" d="M74.15,46.24V41.35h0.3v4.4l3-4.4h0.28v4.89h-0.3V41.8l-3,4.44H74.15Z"/>
  <path class="cls-2" d="M85.43,46.24V41.63h-3v4.61h-0.3V41.35h3.6v4.89h-0.3Z"/>
  <path class="cls-2" d="M87.21,43.79a2.29,2.29,0,1,1,4.55,0A2.29,2.29,0,1,1,87.21,43.79Zm4.22,0a2,2,0,1,0-3.88,0A2,2,0,1,0,91.43,43.79Z"/>
  <path class="cls-2" d="M95.66,42.87A3.34,3.34,0,0,1,99,39.38a3,3,0,0,1,2.35,1.06l-0.25.22a2.69,2.69,0,0,0-2.09-1,3.19,3.19,0,0,0,0,6.38,2.7,2.7,0,0,0,2.09-1l0.26,0.21A3,3,0,0,1,99,46.36,3.34,3.34,0,0,1,95.66,42.87Z"/>
  <path class="cls-2" d="M105.78,46.24v-0.6a2.16,2.16,0,0,1-1.69.72,1.63,1.63,0,1,1,0-3.26,2.16,2.16,0,0,1,1.69.72v-1.1a1.24,1.24,0,0,0-1.38-1.21,1.89,1.89,0,0,0-1.57.77l-0.23-.2a2.15,2.15,0,0,1,1.8-.84,1.47,1.47,0,0,1,1.68,1.48v3.53h-0.3Zm0-.9V44.12a2,2,0,0,0-1.61-.75,1.36,1.36,0,1,0,0,2.71A2,2,0,0,0,105.78,45.34Z"/>
  <path class="cls-2" d="M107.83,46.24V41.35h0.3v2.21h3V41.35h0.3v4.89h-0.3V43.83h-3v2.41h-0.3Z"/>
  <path class="cls-2" d="M116.63,46.24l-2.15-2.46-1,.93v1.53h-0.3V41.35h0.3v3l3.19-3h0.43l-2.38,2.21,2.35,2.68h-0.43Z"/>
  <path class="cls-2" d="M119.09,46.24V41.63h-1.45V41.35h3.21v0.27h-1.46v4.61h-0.3Z"/>
  <path class="cls-2" d="M121.46,43.94v-0.3h2.43v0.3h-2.43Z"/>
  <path class="cls-2" d="M130,46.24V39.8h-4.6v6.44h-0.32V39.49h5.25v6.75H130Z"/>
  <path class="cls-2" d="M131.84,43.79a2.41,2.41,0,0,1,2.3-2.56,2.31,2.31,0,0,1,2.27,2.56v0.1h-4.22a2.09,2.09,0,0,0,2.05,2.2,2.23,2.23,0,0,0,1.7-.74l0.18,0.19a2.44,2.44,0,0,1-1.88.82A2.39,2.39,0,0,1,131.84,43.79Zm2.29-2.29a2.06,2.06,0,0,0-1.94,2.11h3.9A2,2,0,0,0,134.13,41.51Z"/>
  <path class="cls-2" d="M138.77,46.24V41.63h-1.45V41.35h3.21v0.27h-1.46v4.61h-0.3Z"/>
  <path class="cls-2" d="M141.46,43.79a2.41,2.41,0,0,1,2.3-2.56A2.31,2.31,0,0,1,146,43.79v0.1H141.8a2.09,2.09,0,0,0,2.05,2.2,2.23,2.23,0,0,0,1.7-.74l0.18,0.19a2.44,2.44,0,0,1-1.88.82A2.39,2.39,0,0,1,141.46,43.79Zm2.29-2.29a2.06,2.06,0,0,0-1.94,2.11h3.9A2,2,0,0,0,143.74,41.51Z"/>
  <path class="cls-2" d="M147.8,45.4v2.7h-0.3V41.35h0.3v0.82a2.16,2.16,0,0,1,1.76-.94c1.32,0,2.19,1,2.19,2.56s-0.87,2.57-2.19,2.57A2.14,2.14,0,0,1,147.8,45.4Zm3.61-1.61c0-1.28-.66-2.29-1.85-2.29a2.12,2.12,0,0,0-1.76,1V45.1a2.14,2.14,0,0,0,1.76,1C150.76,46.09,151.42,45.08,151.42,43.79Z"/>
  <path class="cls-2" d="M152.93,43.57c0-2.38.9-3.27,2.69-3.51,1.13-.19,1.45-0.34,1.45-0.57h0.27c0,0.58-.82.72-1.67,0.86-1.86.31-2.19,1-2.43,2.21a2.13,2.13,0,0,1,2-1.33,2.33,2.33,0,0,1,2.27,2.55,2.35,2.35,0,0,1-2.28,2.58C153.83,46.36,152.93,45.23,152.93,43.57Zm4.22,0.22a2,2,0,1,0-3.88,0A2,2,0,1,0,157.15,43.79Z"/>
  <path class="cls-2" d="M158.73,47.87a1.21,1.21,0,0,0,.43.08,0.81,0.81,0,0,0,.77-0.67l0.44-1-2.09-4.92h0.35l1.92,4.53,1.91-4.53h0.35l-2.59,6a1.18,1.18,0,0,1-1.07.83,1.71,1.71,0,0,1-.49-0.07Z"/>
  <path class="cls-2" d="M164.1,45.4v2.7h-0.3V41.35h0.3v0.82a2.16,2.16,0,0,1,1.76-.94c1.32,0,2.19,1,2.19,2.56s-0.87,2.57-2.19,2.57A2.13,2.13,0,0,1,164.1,45.4Zm3.61-1.61c0-1.28-.66-2.29-1.85-2.29a2.12,2.12,0,0,0-1.76,1V45.1a2.14,2.14,0,0,0,1.76,1C167.06,46.09,167.71,45.08,167.71,43.79Z"/>
  <path class="cls-2" d="M172.48,41.63h-2.69v4.61h-0.3V41.35h3v0.27Z"/>
  <path class="cls-2" d="M173.37,47.87a1.21,1.21,0,0,0,.43.08,0.81,0.81,0,0,0,.77-0.67l0.44-1-2.09-4.92h0.35l1.92,4.53,1.91-4.53h0.35l-2.59,6a1.18,1.18,0,0,1-1.07.83,1.71,1.71,0,0,1-.49-0.07Z"/>
</g>
</svg>